<mxfile host="app.diagrams.net" modified="2023-07-19T08:45:39.665Z" agent="Mozilla/5.0 (X11; Linux x86_64) AppleWebKit/537.36 (KHTML, like Gecko) Chrome/109.0.0.0 Safari/537.36" etag="VrMwTpZZUilzTebnUcIE" version="21.3.7" type="github">
  <diagram name="Page-1" id="69f5A5o5ooHcfKPdVTa9">
    <mxGraphModel dx="1354" dy="775" grid="1" gridSize="10" guides="1" tooltips="1" connect="1" arrows="1" fold="1" page="1" pageScale="1" pageWidth="850" pageHeight="1100" math="0" shadow="0">
      <root>
        <mxCell id="0" />
        <mxCell id="1" parent="0" />
        <mxCell id="mhxRs8NigVOMIbCnJmK_-1" value="" style="rounded=0;whiteSpace=wrap;html=1;dashed=1;" parent="1" vertex="1">
          <mxGeometry x="1300" y="490" width="300" height="90" as="geometry" />
        </mxCell>
        <mxCell id="mhxRs8NigVOMIbCnJmK_-2" value="" style="rounded=0;whiteSpace=wrap;html=1;dashed=1;" parent="1" vertex="1">
          <mxGeometry x="1300" y="370" width="300" height="90" as="geometry" />
        </mxCell>
        <mxCell id="mhxRs8NigVOMIbCnJmK_-3" value="" style="rounded=0;whiteSpace=wrap;html=1;dashed=1;" parent="1" vertex="1">
          <mxGeometry x="1300" y="70" width="300" height="150" as="geometry" />
        </mxCell>
        <mxCell id="mhxRs8NigVOMIbCnJmK_-4" value="" style="endArrow=none;html=1;rounded=0;" parent="1" edge="1">
          <mxGeometry width="50" height="50" relative="1" as="geometry">
            <mxPoint x="300" y="440" as="sourcePoint" />
            <mxPoint x="300" y="60" as="targetPoint" />
          </mxGeometry>
        </mxCell>
        <mxCell id="mhxRs8NigVOMIbCnJmK_-5" value="" style="endArrow=none;html=1;rounded=0;" parent="1" edge="1">
          <mxGeometry width="50" height="50" relative="1" as="geometry">
            <mxPoint x="430" y="440" as="sourcePoint" />
            <mxPoint x="430" y="60" as="targetPoint" />
          </mxGeometry>
        </mxCell>
        <mxCell id="mhxRs8NigVOMIbCnJmK_-6" value="dpi_done" style="text;html=1;strokeColor=none;fillColor=none;align=center;verticalAlign=middle;whiteSpace=wrap;rounded=0;" parent="1" vertex="1">
          <mxGeometry x="200" y="130" width="60" height="30" as="geometry" />
        </mxCell>
        <mxCell id="mhxRs8NigVOMIbCnJmK_-7" value="CPU 0" style="text;html=1;strokeColor=none;fillColor=none;align=center;verticalAlign=middle;whiteSpace=wrap;rounded=0;" parent="1" vertex="1">
          <mxGeometry x="270" y="30" width="60" height="30" as="geometry" />
        </mxCell>
        <mxCell id="mhxRs8NigVOMIbCnJmK_-8" value="CPU n" style="text;html=1;strokeColor=none;fillColor=none;align=center;verticalAlign=middle;whiteSpace=wrap;rounded=0;" parent="1" vertex="1">
          <mxGeometry x="400" y="30" width="60" height="30" as="geometry" />
        </mxCell>
        <mxCell id="mhxRs8NigVOMIbCnJmK_-9" value="" style="endArrow=none;dashed=1;html=1;rounded=0;" parent="1" edge="1">
          <mxGeometry width="50" height="50" relative="1" as="geometry">
            <mxPoint x="270" y="194.5" as="sourcePoint" />
            <mxPoint x="460" y="195" as="targetPoint" />
          </mxGeometry>
        </mxCell>
        <mxCell id="mhxRs8NigVOMIbCnJmK_-10" value="STATE_RUN --&amp;gt; STATE_UNPREPARE" style="text;html=1;strokeColor=none;fillColor=none;align=center;verticalAlign=middle;whiteSpace=wrap;rounded=0;" parent="1" vertex="1">
          <mxGeometry x="430" y="80" width="269" height="30" as="geometry" />
        </mxCell>
        <mxCell id="mhxRs8NigVOMIbCnJmK_-11" value="wait_event_interruptible_timeout" style="text;html=1;strokeColor=none;fillColor=none;align=center;verticalAlign=middle;whiteSpace=wrap;rounded=0;" parent="1" vertex="1">
          <mxGeometry x="520" y="210" width="60" height="30" as="geometry" />
        </mxCell>
        <mxCell id="mhxRs8NigVOMIbCnJmK_-12" value="STATE_UNPREPARE&amp;nbsp;--&amp;gt; STATE_DISABLE" style="text;html=1;strokeColor=none;fillColor=none;align=center;verticalAlign=middle;whiteSpace=wrap;rounded=0;" parent="1" vertex="1">
          <mxGeometry x="10" y="180" width="269" height="30" as="geometry" />
        </mxCell>
        <mxCell id="mhxRs8NigVOMIbCnJmK_-13" value="wake_up_interruptible" style="text;html=1;strokeColor=none;fillColor=none;align=center;verticalAlign=middle;whiteSpace=wrap;rounded=0;" parent="1" vertex="1">
          <mxGeometry x="170" y="290" width="60" height="30" as="geometry" />
        </mxCell>
        <mxCell id="mhxRs8NigVOMIbCnJmK_-14" value="memset" style="text;html=1;strokeColor=none;fillColor=none;align=center;verticalAlign=middle;whiteSpace=wrap;rounded=0;" parent="1" vertex="1">
          <mxGeometry x="450" y="260" width="60" height="30" as="geometry" />
        </mxCell>
        <mxCell id="mhxRs8NigVOMIbCnJmK_-15" value="" style="endArrow=none;dashed=1;html=1;rounded=0;" parent="1" edge="1">
          <mxGeometry width="50" height="50" relative="1" as="geometry">
            <mxPoint x="270" y="304.5" as="sourcePoint" />
            <mxPoint x="460" y="305" as="targetPoint" />
          </mxGeometry>
        </mxCell>
        <mxCell id="mhxRs8NigVOMIbCnJmK_-16" value="" style="endArrow=none;html=1;rounded=0;" parent="1" edge="1">
          <mxGeometry width="50" height="50" relative="1" as="geometry">
            <mxPoint x="300" y="900" as="sourcePoint" />
            <mxPoint x="300" y="520" as="targetPoint" />
          </mxGeometry>
        </mxCell>
        <mxCell id="mhxRs8NigVOMIbCnJmK_-17" value="" style="endArrow=none;html=1;rounded=0;" parent="1" edge="1">
          <mxGeometry width="50" height="50" relative="1" as="geometry">
            <mxPoint x="430" y="900" as="sourcePoint" />
            <mxPoint x="430" y="520" as="targetPoint" />
          </mxGeometry>
        </mxCell>
        <mxCell id="mhxRs8NigVOMIbCnJmK_-18" value="dpi_done" style="text;html=1;strokeColor=none;fillColor=none;align=center;verticalAlign=middle;whiteSpace=wrap;rounded=0;" parent="1" vertex="1">
          <mxGeometry x="200" y="590" width="60" height="30" as="geometry" />
        </mxCell>
        <mxCell id="mhxRs8NigVOMIbCnJmK_-19" value="CPU 0" style="text;html=1;strokeColor=none;fillColor=none;align=center;verticalAlign=middle;whiteSpace=wrap;rounded=0;" parent="1" vertex="1">
          <mxGeometry x="270" y="490" width="60" height="30" as="geometry" />
        </mxCell>
        <mxCell id="mhxRs8NigVOMIbCnJmK_-20" value="CPU n" style="text;html=1;strokeColor=none;fillColor=none;align=center;verticalAlign=middle;whiteSpace=wrap;rounded=0;" parent="1" vertex="1">
          <mxGeometry x="400" y="490" width="60" height="30" as="geometry" />
        </mxCell>
        <mxCell id="mhxRs8NigVOMIbCnJmK_-21" value="STATE_UNPREPARE&amp;nbsp;--&amp;gt; STATE_DISABLE" style="text;html=1;strokeColor=none;fillColor=none;align=center;verticalAlign=middle;whiteSpace=wrap;rounded=0;" parent="1" vertex="1">
          <mxGeometry x="10" y="640" width="269" height="30" as="geometry" />
        </mxCell>
        <mxCell id="mhxRs8NigVOMIbCnJmK_-22" value="wake_up_interruptible" style="text;html=1;strokeColor=none;fillColor=none;align=center;verticalAlign=middle;whiteSpace=wrap;rounded=0;" parent="1" vertex="1">
          <mxGeometry x="170" y="750" width="60" height="30" as="geometry" />
        </mxCell>
        <mxCell id="mhxRs8NigVOMIbCnJmK_-23" value="if state == STATE_DISABLE&lt;br&gt;memset" style="text;html=1;strokeColor=none;fillColor=none;align=center;verticalAlign=middle;whiteSpace=wrap;rounded=0;" parent="1" vertex="1">
          <mxGeometry x="440" y="700" width="190" height="30" as="geometry" />
        </mxCell>
        <mxCell id="mhxRs8NigVOMIbCnJmK_-24" value="" style="endArrow=none;dashed=1;html=1;rounded=0;" parent="1" edge="1">
          <mxGeometry width="50" height="50" relative="1" as="geometry">
            <mxPoint x="270" y="764.5" as="sourcePoint" />
            <mxPoint x="460" y="765" as="targetPoint" />
          </mxGeometry>
        </mxCell>
        <mxCell id="mhxRs8NigVOMIbCnJmK_-25" value="" style="endArrow=none;html=1;rounded=0;" parent="1" edge="1">
          <mxGeometry width="50" height="50" relative="1" as="geometry">
            <mxPoint x="1150" y="600" as="sourcePoint" />
            <mxPoint x="1150" y="60" as="targetPoint" />
          </mxGeometry>
        </mxCell>
        <mxCell id="mhxRs8NigVOMIbCnJmK_-26" value="" style="endArrow=none;html=1;rounded=0;" parent="1" edge="1">
          <mxGeometry width="50" height="50" relative="1" as="geometry">
            <mxPoint x="1280" y="600" as="sourcePoint" />
            <mxPoint x="1280" y="60" as="targetPoint" />
          </mxGeometry>
        </mxCell>
        <mxCell id="mhxRs8NigVOMIbCnJmK_-27" value="dpi_done" style="text;html=1;strokeColor=none;fillColor=none;align=center;verticalAlign=middle;whiteSpace=wrap;rounded=0;" parent="1" vertex="1">
          <mxGeometry x="1050" y="230" width="60" height="30" as="geometry" />
        </mxCell>
        <mxCell id="mhxRs8NigVOMIbCnJmK_-28" value="CPU 0" style="text;html=1;strokeColor=none;fillColor=none;align=center;verticalAlign=middle;whiteSpace=wrap;rounded=0;" parent="1" vertex="1">
          <mxGeometry x="1120" y="30" width="60" height="30" as="geometry" />
        </mxCell>
        <mxCell id="mhxRs8NigVOMIbCnJmK_-29" value="CPU n" style="text;html=1;strokeColor=none;fillColor=none;align=center;verticalAlign=middle;whiteSpace=wrap;rounded=0;" parent="1" vertex="1">
          <mxGeometry x="1250" y="30" width="60" height="30" as="geometry" />
        </mxCell>
        <mxCell id="mhxRs8NigVOMIbCnJmK_-30" value="" style="endArrow=none;dashed=1;html=1;rounded=0;" parent="1" edge="1">
          <mxGeometry width="50" height="50" relative="1" as="geometry">
            <mxPoint x="1120" y="244.5" as="sourcePoint" />
            <mxPoint x="1660" y="245" as="targetPoint" />
          </mxGeometry>
        </mxCell>
        <mxCell id="mhxRs8NigVOMIbCnJmK_-31" value="STATE_UNPREPARE&amp;nbsp;--&amp;gt; STATE_DISABLE" style="text;html=1;strokeColor=none;fillColor=none;align=center;verticalAlign=middle;whiteSpace=wrap;rounded=0;" parent="1" vertex="1">
          <mxGeometry x="860" y="280" width="269" height="30" as="geometry" />
        </mxCell>
        <mxCell id="mhxRs8NigVOMIbCnJmK_-32" value="wake_up_interruptible" style="text;html=1;strokeColor=none;fillColor=none;align=center;verticalAlign=middle;whiteSpace=wrap;rounded=0;" parent="1" vertex="1">
          <mxGeometry x="1020" y="335" width="60" height="30" as="geometry" />
        </mxCell>
        <mxCell id="mhxRs8NigVOMIbCnJmK_-33" value="if state == STATE_DISABLE&lt;br&gt;memset" style="text;html=1;strokeColor=none;fillColor=none;align=center;verticalAlign=middle;whiteSpace=wrap;rounded=0;" parent="1" vertex="1">
          <mxGeometry x="1330" y="410" width="190" height="30" as="geometry" />
        </mxCell>
        <mxCell id="mhxRs8NigVOMIbCnJmK_-34" value="" style="endArrow=none;dashed=1;html=1;rounded=0;" parent="1" edge="1">
          <mxGeometry width="50" height="50" relative="1" as="geometry">
            <mxPoint x="1120" y="349.5" as="sourcePoint" />
            <mxPoint x="1630" y="350" as="targetPoint" />
          </mxGeometry>
        </mxCell>
        <mxCell id="mhxRs8NigVOMIbCnJmK_-35" value="STATE_RUN --&amp;gt; STATE_UNPREPARE" style="text;html=1;strokeColor=none;fillColor=none;align=center;verticalAlign=middle;whiteSpace=wrap;rounded=0;" parent="1" vertex="1">
          <mxGeometry x="1315.5" y="130" width="269" height="30" as="geometry" />
        </mxCell>
        <mxCell id="mhxRs8NigVOMIbCnJmK_-36" value="wait_event_interruptible_timeout" style="text;html=1;strokeColor=none;fillColor=none;align=center;verticalAlign=middle;whiteSpace=wrap;rounded=0;" parent="1" vertex="1">
          <mxGeometry x="1405.5" y="180" width="60" height="30" as="geometry" />
        </mxCell>
        <mxCell id="mhxRs8NigVOMIbCnJmK_-37" value="wait_event_interruptible_timeout" style="text;html=1;strokeColor=none;fillColor=none;align=center;verticalAlign=middle;whiteSpace=wrap;rounded=0;" parent="1" vertex="1">
          <mxGeometry x="1405.5" y="535" width="60" height="30" as="geometry" />
        </mxCell>
        <mxCell id="mhxRs8NigVOMIbCnJmK_-38" value="Thread A" style="text;html=1;strokeColor=none;fillColor=none;align=center;verticalAlign=middle;whiteSpace=wrap;rounded=0;" parent="1" vertex="1">
          <mxGeometry x="1300" y="70" width="60" height="30" as="geometry" />
        </mxCell>
        <mxCell id="mhxRs8NigVOMIbCnJmK_-39" value="Thread B" style="text;html=1;strokeColor=none;fillColor=none;align=center;verticalAlign=middle;whiteSpace=wrap;rounded=0;" parent="1" vertex="1">
          <mxGeometry x="1300" y="370" width="60" height="30" as="geometry" />
        </mxCell>
        <mxCell id="mhxRs8NigVOMIbCnJmK_-40" value="Thread A" style="text;html=1;strokeColor=none;fillColor=none;align=center;verticalAlign=middle;whiteSpace=wrap;rounded=0;" parent="1" vertex="1">
          <mxGeometry x="1300" y="490" width="60" height="30" as="geometry" />
        </mxCell>
        <mxCell id="mhxRs8NigVOMIbCnJmK_-41" value="( Thread A has been set to TASK_RUNNING, but doesn&#39;t get a chance to run )" style="text;html=1;strokeColor=none;fillColor=none;align=left;verticalAlign=middle;whiteSpace=wrap;rounded=0;dashed=1;" parent="1" vertex="1">
          <mxGeometry x="955" y="400" width="190" height="30" as="geometry" />
        </mxCell>
        <mxCell id="mhxRs8NigVOMIbCnJmK_-42" value="( Thread A has been set to TASK_RUNNING, but doesn&#39;t get a chance to run )" style="text;html=1;strokeColor=none;fillColor=none;align=left;verticalAlign=middle;whiteSpace=wrap;rounded=0;dashed=1;" parent="1" vertex="1">
          <mxGeometry x="955" y="520" width="190" height="30" as="geometry" />
        </mxCell>
        <mxCell id="mhxRs8NigVOMIbCnJmK_-43" value="" style="endArrow=none;dashed=1;html=1;rounded=0;" parent="1" edge="1">
          <mxGeometry width="50" height="50" relative="1" as="geometry">
            <mxPoint x="270" y="654.5" as="sourcePoint" />
            <mxPoint x="460" y="655" as="targetPoint" />
          </mxGeometry>
        </mxCell>
        <mxCell id="mhxRs8NigVOMIbCnJmK_-44" value="" style="endArrow=none;dashed=1;html=1;rounded=0;" parent="1" edge="1">
          <mxGeometry width="50" height="50" relative="1" as="geometry">
            <mxPoint x="270" y="144.5" as="sourcePoint" />
            <mxPoint x="460" y="145" as="targetPoint" />
          </mxGeometry>
        </mxCell>
        <mxCell id="mhxRs8NigVOMIbCnJmK_-45" value="" style="endArrow=none;dashed=1;html=1;rounded=0;" parent="1" edge="1">
          <mxGeometry width="50" height="50" relative="1" as="geometry">
            <mxPoint x="270" y="604.5" as="sourcePoint" />
            <mxPoint x="460" y="605" as="targetPoint" />
          </mxGeometry>
        </mxCell>
      </root>
    </mxGraphModel>
  </diagram>
</mxfile>
